<svg width="184" height="40" viewBox="0 0 184 40" fill="none" xmlns="http://www.w3.org/2000/svg">
<g filter="url(#filter0_d_233_166)">
<path d="M85.2725 15.0027V31.5771H89.9914V16.1375C89.9914 14.8335 91.0487 13.7762 92.3526 13.7762H97.2302V9.11719H91.1615C87.9086 9.11719 85.2725 11.7498 85.2725 15.0027Z" fill="#114455"/>
<path d="M24.1445 8.62744C18.7454 8.62744 14.5727 12.5675 14.5727 17.4838V24.7155C14.5551 25.0926 14.3824 25.4733 14.1745 25.8081C13.6388 26.6785 12.7471 27.1719 11.7286 27.1719H11.6828C10.6749 27.1719 9.74802 26.6327 9.24758 25.7587L9.15595 25.5966C8.95507 25.2477 8.84934 24.853 8.84934 24.4512V23.697H8.85286V9.12436H4.00352V21.4803H4V24.1587C4 25.4874 4.35242 26.7948 5.01498 27.9367L5.09251 28.0741C6.43524 30.3966 8.9304 31.8098 11.6159 31.8486C11.6546 31.8486 11.6934 31.8486 11.7322 31.8486C14.3718 31.8486 16.7683 30.5129 18.1568 28.2644C18.6044 27.5385 18.9427 26.742 19.133 25.9173C19.2564 25.3816 19.2916 24.8283 19.2916 24.2785V18.1147C19.2916 16.2045 20.215 12.9446 24.1445 12.9446C26.7524 12.9446 28.4582 14.8759 28.4582 18.1147V31.5526H33.2687V17.4838C33.2687 12.2222 29.089 8.62744 24.1445 8.62744Z" fill="#114455"/>
<path d="M46.379 26.6046L40.4125 9.12793H35.3799L42.816 29.3464C43.3623 30.8301 44.7755 31.8169 46.3579 31.8169C47.9367 31.8169 49.3499 30.8337 49.8962 29.3535L57.3781 9.12793H52.2997L46.379 26.6046Z" fill="#114455"/>
<path d="M70.0228 8.62744C63.369 8.62744 58.9673 13.66 58.9673 20.3138C58.9673 26.9217 63.3726 32.0001 70.0228 32.0001C76.673 32.0001 81.0783 26.9217 81.0783 20.3138C81.0783 13.6636 76.673 8.62744 70.0228 8.62744ZM70.0228 27.5948C66.4281 27.5948 63.6862 24.4935 63.6862 20.3138C63.6862 16.0882 66.4281 13.0327 70.0228 13.0327C73.6633 13.0327 76.3594 16.0882 76.3594 20.3138C76.3594 24.4935 73.6633 27.5948 70.0228 27.5948Z" fill="#114455"/>
<path d="M6.41144 4.8141H6.45021C7.77884 4.8141 8.85726 3.73568 8.85726 2.40705C8.85726 1.07841 7.77884 0 6.45021 0H6.41144C5.08281 0 4.00439 1.07841 4.00439 2.40705C4.00439 3.73568 5.08281 4.8141 6.41144 4.8141Z" fill="#114455"/>
<path d="M103.524 4.8141H103.563C104.892 4.8141 105.97 3.73568 105.97 2.40705C105.97 1.07841 104.892 0 103.563 0H103.524C102.196 0 101.117 1.07841 101.117 2.40705C101.117 3.73568 102.196 4.8141 103.524 4.8141Z" fill="#114455"/>
<path d="M177.061 26.8193H177.022C175.693 26.8193 174.615 27.8978 174.615 29.2264C174.615 30.555 175.693 31.6334 177.022 31.6334H177.061C178.389 31.6334 179.468 30.555 179.468 29.2264C179.468 27.8978 178.389 26.8193 177.061 26.8193Z" fill="#114455"/>
<path d="M161.413 8.62744C158.552 8.62744 156.046 9.7411 154.312 11.5103C152.624 9.69528 150.171 8.62744 147.482 8.62744C142.083 8.62744 137.91 12.5675 137.91 17.4803V31.549H142.629V18.1147C142.629 16.2045 143.552 12.9446 147.482 12.9446C150.09 12.9446 151.796 14.8759 151.796 18.1147V31.5526H151.841H156.56H156.606V17.4838C156.606 17.4556 156.603 17.431 156.603 17.4028C156.818 15.4926 157.938 12.9446 161.413 12.9446C164.021 12.9446 165.727 14.8759 165.727 18.1147V31.5526H170.537V17.4838C170.537 12.2222 166.358 8.62744 161.413 8.62744Z" fill="#114455"/>
<path d="M123.75 8.58154C117.294 8.58154 113.167 13.5472 113.146 20.3525H113.142V23.5454C113.142 24.3666 112.85 25.1666 112.321 25.7974C111.655 26.5904 110.679 27.045 109.643 27.0485H109.639C108.603 27.0485 107.627 26.5939 106.957 25.7974C106.425 25.1666 106.136 24.3666 106.136 23.5419V16.9798H106.132V9.11018H101.354V23.6476H101.361C101.385 25.5578 102.072 27.4115 103.309 28.8776C104.888 30.7525 107.197 31.8238 109.643 31.8238H109.65C112.102 31.8203 114.411 30.7419 115.986 28.867C116.021 28.8247 116.053 28.7754 116.088 28.7296C117.988 30.7771 120.719 31.9507 124.021 31.9507C127.887 31.9507 131.302 30.1956 132.874 27.4573L129.28 25.2547C128.335 26.6467 126.672 27.8168 124.201 27.8168C120.606 27.8168 118.27 25.6141 117.773 21.7939H133.505C134.358 14.3789 130.897 8.58154 123.75 8.58154ZM117.815 18.2908C118.4 14.8758 120.511 12.6732 123.792 12.6732C127.479 12.6732 129.23 15.5489 129.23 18.2908H117.815Z" fill="#114455"/>
</g>
<defs>
<filter id="filter0_d_233_166" x="0" y="0" width="183.468" height="40" filterUnits="userSpaceOnUse" color-interpolation-filters="sRGB">
<feFlood flood-opacity="0" result="BackgroundImageFix"/>
<feColorMatrix in="SourceAlpha" type="matrix" values="0 0 0 0 0 0 0 0 0 0 0 0 0 0 0 0 0 0 127 0" result="hardAlpha"/>
<feOffset dy="4"/>
<feGaussianBlur stdDeviation="2"/>
<feComposite in2="hardAlpha" operator="out"/>
<feColorMatrix type="matrix" values="0 0 0 0 0 0 0 0 0 0 0 0 0 0 0 0 0 0 0.25 0"/>
<feBlend mode="normal" in2="BackgroundImageFix" result="effect1_dropShadow_233_166"/>
<feBlend mode="normal" in="SourceGraphic" in2="effect1_dropShadow_233_166" result="shape"/>
</filter>
</defs>
</svg>
