<svg width="244" height="45" viewBox="0 0 244 45" fill="none" xmlns="http://www.w3.org/2000/svg">
<path d="M112.989 20.8371V43.8571H119.543V22.4132C119.543 20.6021 121.012 19.1337 122.823 19.1337H129.597V12.6628H121.168C116.65 12.6628 112.989 16.3192 112.989 20.8371Z" fill="#1F1F1F"/>
<path d="M28.0898 11.9824C20.591 11.9824 14.7956 17.4548 14.7956 24.283V34.327C14.7711 34.8508 14.5313 35.3794 14.2425 35.8444C13.4985 37.0534 12.2601 37.7387 10.8455 37.7387H10.7819C9.38201 37.7387 8.09469 36.9898 7.39963 35.7759L7.27237 35.5507C6.99337 35.0661 6.84652 34.5179 6.84652 33.9599V32.9124H6.85142V12.6726H0.116223V29.8336H0.111328V33.5536C0.111328 35.399 0.600805 37.2149 1.52102 38.8008L1.6287 38.9917C3.49361 42.2174 6.9591 44.1802 10.6889 44.234C10.7428 44.234 10.7966 44.234 10.8504 44.234C14.5166 44.234 17.8451 42.3789 19.7736 39.256C20.3952 38.2477 20.8651 37.1415 21.1294 35.9961C21.3008 35.2521 21.3497 34.4836 21.3497 33.7201V25.1591C21.3497 22.5062 22.6321 17.9785 28.0898 17.9785C31.7119 17.9785 34.081 20.6608 34.081 25.1591V43.8229H40.7623V24.283C40.7623 16.9751 34.9571 11.9824 28.0898 11.9824Z" fill="#1F1F1F"/>
<path d="M58.9709 36.9505L50.684 12.6774H43.6943L54.0223 40.7586C54.781 42.8193 56.7438 44.1899 58.9415 44.1899C61.1344 44.1899 63.0972 42.8242 63.8559 40.7684L74.2474 12.6774H67.1941L58.9709 36.9505Z" fill="#1F1F1F"/>
<path d="M91.8097 11.9824C82.5684 11.9824 76.4548 18.9721 76.4548 28.2135C76.4548 37.3911 82.5733 44.4445 91.8097 44.4445C101.046 44.4445 107.165 37.3911 107.165 28.2135C107.165 18.977 101.046 11.9824 91.8097 11.9824ZM91.8097 38.326C86.817 38.326 83.0089 34.0186 83.0089 28.2135C83.0089 22.3446 86.817 18.1009 91.8097 18.1009C96.866 18.1009 100.61 22.3446 100.61 28.2135C100.61 34.0186 96.866 38.326 91.8097 38.326Z" fill="#1F1F1F"/>
<path d="M3.4588 6.68625H3.51264C5.35796 6.68625 6.85576 5.18845 6.85576 3.34312C6.85576 1.4978 5.35796 0 3.51264 0H3.4588C1.61347 0 0.115673 1.4978 0.115673 3.34312C0.115673 5.18845 1.61347 6.68625 3.4588 6.68625Z" fill="#1F1F1F"/>
<path d="M138.34 6.68625H138.393C140.239 6.68625 141.737 5.18845 141.737 3.34312C141.737 1.4978 140.239 0 138.393 0H138.34C136.494 0 134.996 1.4978 134.996 3.34312C134.996 5.18845 136.494 6.68625 138.34 6.68625Z" fill="#1F1F1F"/>
<path d="M240.474 37.2492H240.42C238.574 37.2492 237.077 38.747 237.077 40.5923C237.077 42.4376 238.574 43.9354 240.42 43.9354H240.474C242.319 43.9354 243.817 42.4376 243.817 40.5923C243.817 38.747 242.319 37.2492 240.474 37.2492Z" fill="#1F1F1F"/>
<path d="M218.741 11.9824C214.766 11.9824 211.286 13.5292 208.878 15.9863C206.533 13.4655 203.126 11.9824 199.392 11.9824C191.893 11.9824 186.098 17.4548 186.098 24.2781V43.818H192.652V25.1591C192.652 22.5062 193.934 17.9785 199.392 17.9785C203.014 17.9785 205.383 20.6608 205.383 25.1591V43.8229H212.064V24.283C212.064 24.2438 212.059 24.2095 212.059 24.1704C212.358 21.5174 213.914 17.9785 218.741 17.9785C222.363 17.9785 224.732 20.6608 224.732 25.1591V43.8229H231.413V24.283C231.413 16.9751 225.608 11.9824 218.741 11.9824Z" fill="#1F1F1F"/>
<path d="M166.431 11.9188C157.463 11.9188 151.732 18.8155 151.702 28.2673H151.697V32.7019C151.697 33.8424 151.291 34.9535 150.557 35.8297C149.632 36.931 148.276 37.5624 146.837 37.5673H146.832C145.393 37.5673 144.037 36.9359 143.107 35.8297C142.368 34.9535 141.967 33.8424 141.967 32.6971V23.583H141.962V12.653H135.324V32.8439H135.334C135.368 35.4969 136.323 38.0715 138.041 40.1077C140.234 42.7117 143.44 44.1997 146.837 44.1997H146.847C150.253 44.1949 153.46 42.6971 155.647 40.093C155.696 40.0343 155.74 39.9658 155.789 39.9021C158.428 42.746 162.221 44.376 166.808 44.376C172.177 44.376 176.92 41.9384 179.103 38.1351L174.111 35.0759C172.799 37.0093 170.488 38.6344 167.057 38.6344C162.064 38.6344 158.819 35.5752 158.129 30.2692H179.979C181.164 19.9707 176.357 11.9188 166.431 11.9188ZM158.188 25.4039C159 20.6608 161.932 17.6016 166.489 17.6016C171.609 17.6016 174.042 21.5957 174.042 25.4039H158.188Z" fill="#1F1F1F"/>
</svg>
